<?xml version="1.0" standalone="no"?>
<!DOCTYPE svg PUBLIC "-//W3C//DTD SVG 20010904//EN"
 "http://www.w3.org/TR/2001/REC-SVG-20010904/DTD/svg10.dtd">
<svg version="1.0" xmlns="http://www.w3.org/2000/svg"
 width="500.000000pt" height="500.000000pt" viewBox="0 0 500.000000 500.000000"
 preserveAspectRatio="xMidYMid meet">
<metadata>
Created by potrace 1.11, written by Peter Selinger 2001-2013
</metadata>
<g transform="translate(0.000000,500.000000) scale(0.100000,-0.100000)"
fill="#000000" stroke="none">
<path d="M2409 4774 c-103 -241 -108 -246 -184 -158 -27 32 -66 76 -86 98
l-37 40 -27 -118 c-17 -71 -32 -115 -39 -113 -177 66 -218 79 -227 70 -7 -7 6
-32 38 -74 96 -128 177 -313 166 -384 -17 -109 -110 -166 -599 -363 -149 -61
-299 -124 -334 -142 -130 -66 -257 -179 -296 -265 -73 -161 7 -379 155 -423
38 -12 141 -17 141 -7 0 3 -25 31 -55 62 -74 78 -99 130 -93 193 6 57 53 140
105 184 72 61 126 73 487 113 386 42 368 44 418 -49 33 -62 65 -81 131 -76 55
3 127 -55 161 -131 24 -51 35 -53 29 -3 -21 171 -105 277 -259 329 -27 9 -50
17 -52 18 -1 1 31 62 72 136 l74 134 95 3 94 3 -15 65 c-14 57 -14 66 -1 79
13 14 27 0 124 -119 l108 -135 64 93 c64 95 92 121 145 137 25 7 28 5 24 -9
-19 -65 -26 -105 -21 -110 3 -3 45 -5 93 -4 l88 1 72 -133 c40 -73 72 -135 72
-138 0 -3 -21 -11 -46 -18 -64 -18 -158 -81 -194 -131 -16 -23 -37 -65 -45
-92 -16 -53 -20 -147 -7 -147 4 0 18 27 30 60 13 33 38 74 55 91 29 29 34 31
91 27 81 -6 104 5 117 59 14 52 52 93 88 93 14 0 55 -9 91 -20 69 -21 124 -26
367 -35 171 -6 234 -15 301 -45 69 -31 104 -62 136 -119 61 -112 43 -216 -52
-309 -64 -63 -60 -77 19 -62 120 22 214 98 240 193 30 113 -24 271 -128 376
-68 68 -168 119 -558 286 -366 156 -498 228 -542 294 -41 60 -33 90 77 312 55
111 98 204 96 207 -3 2 -53 -14 -113 -37 -59 -22 -110 -37 -113 -33 -4 4 -19
61 -34 127 -15 66 -29 121 -31 123 -1 1 -37 -44 -80 -100 -43 -57 -82 -107
-86 -112 -5 -5 -18 -3 -31 6 -16 11 -48 74 -103 207 -44 105 -82 191 -86 191
-3 0 -44 -88 -90 -196z m114 -186 c4 -18 9 -61 13 -95 l7 -63 -42 0 -41 0 0
49 c0 26 3 69 6 95 6 39 10 46 29 46 18 0 24 -7 28 -32z m337 -408 c0 -6 -126
-10 -359 -10 -229 0 -362 4 -366 10 -4 7 118 10 359 10 237 0 366 -4 366 -10z"/>
<path d="M1593 4295 c-35 -7 -86 -26 -115 -42 -52 -28 -178 -143 -178 -163 0
-14 3 -14 294 25 143 20 286 38 316 42 30 3 56 7 58 8 2 2 -14 20 -35 40 -84
83 -217 118 -340 90z"/>
<path d="M3249 4299 c-58 -9 -142 -50 -193 -94 -47 -42 -81 -33 319 -85 171
-23 316 -43 323 -45 27 -9 9 16 -56 77 -128 121 -256 169 -393 147z"/>
<path d="M3040 4108 c0 -5 23 -33 50 -62 67 -71 127 -96 344 -145 284 -64 430
-117 567 -206 79 -51 79 -46 3 61 -58 82 -137 153 -220 196 -95 50 -158 66
-399 104 -22 3 -109 18 -192 33 -84 15 -153 24 -153 19z"/>
<path d="M1659 4065 c-417 -79 -469 -97 -582 -208 -58 -57 -152 -186 -142
-195 2 -2 23 9 47 26 116 80 267 137 534 202 181 45 222 58 304 102 52 28 105
56 118 62 14 7 21 18 20 31 -4 31 -47 28 -299 -20z"/>
<path d="M1400 3423 c-49 -8 -146 -46 -188 -75 -88 -61 -119 -155 -77 -241
l18 -38 29 51 c36 62 95 95 156 85 57 -9 112 -25 112 -33 0 -4 -26 -22 -58
-40 -170 -97 -322 -287 -367 -458 -21 -80 -30 -207 -16 -231 10 -17 10 -17 11
2 0 11 16 54 36 95 27 58 54 93 117 155 93 90 146 123 452 281 377 194 375
193 362 226 -6 17 -215 134 -317 177 -100 43 -189 57 -270 44z"/>
<path d="M3395 3404 c-98 -24 -235 -98 -310 -166 -36 -33 -64 -65 -63 -70 2
-5 37 -27 78 -49 41 -22 104 -57 140 -77 36 -20 157 -82 270 -138 113 -56 233
-122 266 -148 73 -54 133 -130 170 -211 15 -33 28 -61 29 -63 1 -1 14 2 28 7
l26 10 -59 146 c-90 224 -129 279 -307 436 -68 60 -119 110 -115 112 4 3 35 7
70 11 87 10 122 -4 181 -72 l50 -57 16 37 c17 43 19 95 5 132 -18 47 -88 112
-153 142 -53 24 -77 28 -162 30 -62 2 -123 -3 -160 -12z"/>
<path d="M1648 2921 c-223 -133 -307 -191 -376 -266 -103 -110 -149 -212 -158
-355 -6 -90 12 -183 53 -279 l19 -44 17 84 c32 163 94 277 222 405 49 50 134
123 187 163 101 74 158 121 241 198 l48 44 -41 75 c-23 41 -42 74 -43 74 -1 0
-77 -45 -169 -99z"/>
<path d="M3088 2963 c-37 -30 -65 -59 -62 -64 5 -8 63 -52 394 -298 211 -157
348 -356 376 -548 11 -81 19 -80 49 9 33 99 44 239 25 327 -30 141 -135 284
-279 381 -60 40 -259 160 -266 160 -2 0 -38 20 -79 45 -42 25 -80 45 -84 44
-4 0 -37 -25 -74 -56z"/>
<path d="M2346 2812 c71 -49 134 -91 141 -95 7 -5 70 31 155 88 l143 95 -284
0 -284 0 129 -88z"/>
<path d="M1842 2752 c-241 -256 -363 -412 -407 -520 -63 -156 -50 -384 29
-491 30 -41 28 -44 56 111 22 131 39 187 80 268 32 62 125 207 210 325 65 89
110 174 134 250 20 64 35 161 26 175 -4 6 -58 -44 -128 -118z"/>
<path d="M3027 2820 c6 -79 44 -197 85 -265 17 -27 68 -99 113 -160 104 -139
152 -218 197 -325 46 -109 61 -181 61 -305 1 -55 3 -92 5 -82 2 9 7 17 11 17
12 0 68 126 85 190 23 87 16 238 -17 328 -48 136 -116 223 -410 527 l-135 140
5 -65z"/>
<path d="M1951 2592 c-52 -92 -121 -210 -154 -262 -33 -52 -72 -122 -87 -155
-95 -209 -54 -443 105 -602 36 -36 68 -64 70 -61 3 2 0 20 -5 39 -20 67 -40
215 -40 296 0 153 41 296 147 508 28 55 56 125 63 155 14 59 16 228 3 241 -5
5 -51 -67 -102 -159z"/>
<path d="M2936 2719 c-21 -108 3 -233 69 -355 151 -276 191 -553 116 -794 -10
-33 -15 -60 -11 -60 16 0 104 96 142 155 94 144 107 337 35 513 -21 51 -332
572 -342 572 -1 0 -5 -14 -9 -31z"/>
<path d="M2322 2495 c-70 -15 -172 -59 -172 -73 0 -5 18 -26 40 -46 l40 -36
48 35 c145 103 276 107 421 10 l65 -43 43 36 c24 20 43 42 43 48 0 15 -134 60
-220 74 -88 14 -232 11 -308 -5z"/>
<path d="M2884 2287 c-23 -126 -23 -290 0 -508 9 -86 18 -165 20 -175 2 -11 7
-46 11 -79 8 -73 49 -198 76 -237 11 -15 30 -33 41 -39 34 -18 128 -11 128 10
0 5 -13 14 -28 20 -40 17 -100 78 -118 120 -25 59 -18 152 21 316 54 221 54
335 0 467 -21 52 -108 192 -125 203 -4 2 -16 -42 -26 -98z"/>
<path d="M2020 2299 c-108 -168 -125 -330 -60 -574 42 -158 46 -288 12 -353
-22 -41 -99 -102 -129 -102 -25 0 -13 -18 15 -23 80 -14 132 7 167 67 30 52
42 101 50 196 4 41 8 80 10 87 2 7 5 68 6 135 1 72 11 175 24 249 20 117 22
175 11 239 -8 44 -47 140 -57 140 -5 0 -27 -27 -49 -61z"/>
<path d="M2465 2298 c-30 -85 -96 -485 -98 -593 -2 -90 -2 -90 47 -182 27 -51
53 -93 57 -93 19 0 82 79 108 134 38 80 51 147 51 261 0 151 -38 295 -111 417
-42 71 -47 76 -54 56z"/>
<path d="M2228 2153 c-31 -71 -62 -148 -68 -173 -17 -61 -15 -156 3 -208 15
-42 57 -112 67 -112 3 0 23 123 44 273 54 377 51 347 29 347 -15 0 -32 -28
-75 -127z"/>
<path d="M2677 2273 c-4 -6 69 -530 85 -609 5 -27 54 53 74 122 22 75 14 156
-24 260 -68 181 -115 261 -135 227z"/>
<path d="M2173 1087 c-101 -14 -150 -77 -154 -200 l-2 -47 -54 0 -53 0 0 -60
c0 -65 -5 -61 70 -64 l35 -1 2 -245 c1 -135 2 -255 2 -267 1 -22 5 -23 91 -23
l90 0 0 269 0 269 53 0 c28 0 58 0 65 1 8 1 12 20 12 61 l0 60 -65 0 -65 0 0
43 c0 67 10 75 98 76 l42 1 0 65 0 65 -32 1 c-18 0 -42 2 -53 3 -11 1 -48 -2
-82 -7z"/>
<path d="M1660 924 l0 -166 -41 35 c-68 59 -167 72 -263 37 -83 -31 -140 -98
-170 -199 -17 -58 -15 -202 3 -263 28 -91 120 -180 202 -196 101 -19 209 6
254 59 l25 31 0 -41 0 -41 85 0 85 0 0 455 0 455 -90 0 -90 0 0 -166z m-67
-242 c81 -48 97 -257 24 -329 -57 -57 -155 -59 -211 -4 -74 74 -65 281 15 330
56 34 118 35 172 3z"/>
<path d="M2409 1028 c0 -77 0 -818 0 -835 1 -10 26 -13 91 -13 l90 0 0 455 0
455 -90 0 -90 0 -1 -62z"/>
<path d="M637 846 c-96 -26 -163 -95 -169 -176 l-3 -34 79 -1 c79 0 79 0 92
30 18 45 45 64 95 69 65 7 116 -9 132 -42 14 -29 15 -36 4 -69 -9 -24 -45 -38
-122 -48 -92 -12 -110 -16 -160 -30 -59 -17 -95 -40 -127 -80 -19 -25 -23 -41
-23 -100 0 -61 4 -77 28 -113 41 -62 93 -85 197 -86 75 -1 92 2 145 29 33 17
63 31 67 33 3 2 8 -7 10 -20 3 -22 7 -23 97 -26 87 -3 93 -1 85 15 -4 10 -10
131 -13 268 -7 267 -10 282 -63 332 -43 41 -97 56 -203 59 -58 1 -120 -3 -148
-10z m237 -408 c-5 -74 -20 -105 -68 -133 -54 -32 -140 -29 -168 5 -26 32 -23
92 5 117 28 26 52 34 151 49 23 3 47 9 56 14 23 13 27 5 24 -52z"/>
<path d="M2910 847 c-52 -15 -107 -46 -132 -76 -20 -24 -51 -110 -44 -126 4
-12 145 -13 165 -1 6 4 11 15 11 25 0 35 44 63 106 66 70 4 111 -14 121 -53
20 -78 -4 -92 -192 -117 -60 -8 -136 -32 -173 -55 -63 -39 -90 -148 -57 -227
32 -77 92 -113 196 -118 79 -4 142 11 199 49 l39 25 3 -27 3 -27 94 -3 c87 -3
93 -1 85 15 -4 10 -9 124 -11 253 -4 256 -11 295 -61 343 -15 14 -45 33 -67
43 -53 22 -224 29 -285 11z m233 -408 c-2 -68 -27 -119 -68 -137 -69 -32 -153
-23 -175 19 -14 25 -12 81 4 101 17 22 46 33 131 47 39 7 77 16 85 21 24 16
26 13 23 -51z"/>
<path d="M3805 850 c-49 -11 -91 -37 -127 -79 l-34 -40 0 52 1 52 -88 3 -87 3
0 -331 0 -330 90 0 90 0 1 48 c0 26 0 101 0 167 0 128 15 203 48 243 27 31 85
54 135 52 22 -1 46 -1 52 -1 8 1 11 28 10 83 l-1 81 -30 2 c-16 0 -43 -2 -60
-5z"/>
<path d="M4150 847 c-56 -16 -105 -45 -147 -89 -109 -113 -122 -337 -25 -471
81 -114 279 -160 417 -97 72 33 146 115 157 175 3 18 -3 20 -80 20 l-83 1 -21
-33 c-11 -19 -34 -41 -51 -49 -39 -21 -124 -15 -160 12 -29 21 -55 73 -59 119
l-3 30 235 0 235 0 1 50 c2 135 -74 266 -184 317 -57 26 -168 33 -232 15z
m156 -135 c32 -13 60 -52 74 -102 l9 -30 -145 0 c-159 0 -157 -1 -130 63 31
73 112 103 192 69z"/>
</g>
</svg>
